PathFileType	4	(X/Y/Z)	RUN4																																																													
DataRate	CameraRate	NumFrames	NumMarkers	Units	OrigDataRate	OrigDataStartFrame	OrigNumFrames																																																									
15	15	20	21	mm	15	433	577																																																									
Frame#	Time	SpineBase			SpineMid			Neck			Head			ShoulderLeft			ElbowLeft			WristLeft			HandLeft			ShoulderRight			ElbowRight			WristRight			HandRight			HipLeft			KneeLeft			AnkleLeft			FootLeft			HipRight			KneeRight			AnkleRight			FootRight			SpineShoulder		
		X1	Y1	Z1	X2	Y2	Z2	X3	Y3	Z3	X4	Y4	Z4	X5	Y5	Z5	X6	Y6	Z6	X7	Y7	Z7	X8	Y8	Z8	X9	Y9	Z9	X10	Y10	Z10	X11	Y11	Z11	X12	Y12	Z12	X13	Y13	Z13	X14	Y14	Z14	X15	Y15	Z15	X16	Y16	Z16	X17	Y17	Z17	X18	Y18	Z18	X19	Y19	Z19	X20	Y20	Z20	X21	Y21	Z21
																																																																
433	28.8	849.266	353.0785	236.56173	1014.158	540.7323	249.38121	1192.431	737.5814	261.35135	1246.164	847.9465	236.63684	1172.642	680.7464	66.66835	1127.65	486.6452	-23.56755	1195.419	308.3325	21.33085	1199.262	276.8125	26.57645	1181.437	699.0913	425.63745	1105.165	512.1247	518.50535	1242.011	402.1967	337.79088	1274.031	404.785	282.15578	880.166	357.6185	154.68555	1173.373	375.3415	38.90985	996.536	-73.021	94.00765	1063.56	-146.635	110.56605	877.456	365.9861	320.53896	1144.076	329.5457	480.72385	966.161	-53.787	413.31201	1019.208	-155.104	355.14228	1144.6	690.6599	257.71576
434	28.86666667	921.142	338.4948	233.59482	1050.583	527.5168	248.94726	1198.8	723.0921	262.96524	1252.139	833.9276	238.02184	1178.986	672.8864	68.46875	1132.513	480.7697	-21.18215	1203.715	302.5593	24.53765	1204.873	273.0669	27.54125	1188.39	690.0432	426.72985	1112.639	508.3118	524.81965	1254.424	408.0293	333.76273	1276.19	409.3117	276.59312	949.68	343.4875	152.30105	1230.335	382.4245	1.34415	994.946	-73.596	99.44975	1061.98	-146.441	113.96235	949.429	351.2337	317.039543	1181.477	319.2603	530.09195	967.609	-53.412	412.07238	1019.849	-153.712	352.19018	1157.487	674.619	259.38327
435	28.93333333	913.603	337.5621	237.68945	1046.332	524.3476	250.56435	1198.247	708.9233	263.79501	1253.746	829.0353	236.41872	1180.73	661.6517	69.66485	1138.522	471.9949	-21.17595	1209.033	296.5648	23.98285	1193.536	241.59	33.98375	1188.881	680.0658	427.70205	1113.476	504.5173	528.04415	1261.514	421.1818	322.921853	1272.308	414.1554	262.7665	944.452	343.1265	156.32745	1240.39	378.7103	-3.19405	992.844	-76.442	100.35885	1060.274	-148.04	115.79165	943.904	351.0385	321.250532	1190.662	311.8793	542.15935	964.405	-56.224	409.88804	1020.304	-154.224	350.50123	1156.99	663.8669	260.74368
436	29	887.045	318.9647	241.734	1041.767	510.8314	250.60433	1200.954	695.8988	261.32166	1254.758	816.0041	236.8958	1186.684	648.8521	69.47075	1143.661	471.8521	-23.79925	1214.645	296.8837	26.52105	1200.768	237.6853	38.45785	1193.848	672.9067	427.19875	1120.7	499.6051	532.67145	1169.874	293.9502	457.29165	1141.913	266.1127	434.98645	918.936	323.1363	160.68465	1223.714	375.19	19.67495	994.364	-75.642	101.36675	1060.114	-147.834	115.61945	914.606	333.5978	324.785891	1186.046	316.8609	523.27075	964.685	-47.574	405.32702	1022.77	-148.593	354.06376	1158.637	650.0576	258.69202
437	29.06666667	888.891	319.6237	241.85901	1042.636	507.7276	250.37679	1203.328	687.5103	259.35685	1255.363	807.0803	236.48414	1192.124	642.0531	69.70275	1152.286	464.4505	-22.35295	1222.858	295.5264	34.71305	1209.316	238.0336	45.87395	1198.654	660.4891	424.99745	1126.918	495.3746	535.75895	1177.051	291.1395	478.05355	1160.864	264.4158	447.16525	919.825	323.8007	160.91225	1231.519	354.4269	31.34955	995.372	-76.292	103.18035	1057.419	-148.403	119.47595	916.005	334.0176	324.805073	1189.821	315.8025	518.56335	964.465	-61.891	397.89298	1024.921	-155.119	351.5306	1160.685	642.9281	257.20875
438	29.13333333	890.539	320.4768	242.01827	1043.803	505.8661	250.2127	1204.785	681.8669	258.22814	1255.254	801.3813	236.97439	1196.234	629.7846	69.82335	1161.952	431.4707	-21.41335	1237.589	269.5249	47.44715	1213.491	233.1895	54.43015	1201.953	650.7025	426.50465	1132.273	493.0538	537.21775	1177.317	250.9813	466.23315	1133.511	192.3398	436.22565	921.047	324.5582	161.12845	1233.698	350.9631	34.79345	997.403	-76.021	104.64145	1055.925	-147.434	121.82335	917.188	334.6598	324.873667	1192.826	321.1641	515.71585	964.599	-79.888	392.81866	1027.508	-155.82	352.9853	1162.191	638.1413	256.31135
439	29.2	893.758	323.917	242.39755	1045.158	505.868	250.32201	1205.807	680.6882	258.39323	1255.899	799.3684	237.37985	1199.05	623.9753	70.17135	1168.878	425.0875	-17.41595	1239.988	254.3216	28.73285	1220.29	227.5424	50.37475	1204.628	647.0958	427.67235	1138.862	488.7863	542.23185	1178.427	253.853	449.55505	1152.739	219.6432	424.45795	923.925	327.5989	161.60715	1227.368	348.0569	43.10535	995.519	-82.153	109.66615	1056.97	-150.718	123.43115	920.099	338.2139	325.10762	1189.244	327.7475	505.08535	966.939	-85.441	393.47307	1027.845	-155.042	354.06362	1163.404	637.2468	256.44613
440	29.26666667	893.856	323.9538	243.06759	1045.45	504.7363	250.71724	1206.447	679.9049	258.44979	1255.124	798.224	238.09154	1201.057	621.2238	70.96255	1172.925	421.2744	-15.37835	1221.559	248.8053	65.20315	1204.659	208.5372	75.70175	1206.734	643.7907	428.31305	1147.265	475.1702	545.08755	1202.282	296.7384	495.92025	1206.555	284.192	463.35525	924.172	327.8606	161.74765	1220.979	349.3781	50.98685	1038.28	-69.597	94.96865	1118.503	-144.373	103.23865	919.242	337.5182	326.70466	1187.415	324.8574	492.05305	1001.416	-87.943	416.61505	1029.972	-152.81	360.59302	1164.049	636.3369	256.55673
441	29.33333333	891.983	323.7258	243.34284	1043.676	504.5118	251.27131	1204.842	680.5019	259.64406	1253.25	803.3776	239.23086	1200.867	620.8545	71.46905	1174.785	422.3172	-15.19825	1221.405	248.1423	66.56795	1204.893	203.6122	75.64605	1206.656	642.6994	429.02385	1161.664	445.4159	535.22785	1194.248	248.8679	442.57435	1166.932	226.971	421.35045	922.921	328.2656	161.66485	1215.076	354.7608	56.88565	1032.363	-57.569	100.53045	1112.031	-130.793	108.58555	917.792	337.204	327.52025	1183.876	298.3889	478.91475	964.808	-89.566	390.56325	1029.925	-152.303	360.27174	1162.435	636.6314	257.51581
442	29.4	894.808	326.9839	244.29427	1043.875	509.5667	252.8418	1200.402	693.2504	262.87115	1244.918	818.0831	243.64427	1202.002	628.2974	75.59075	1186.515	432.8988	-13.29465	1259.158	272.1439	60.74555	1245.969	264.842	52.31735	1206.433	645.7708	431.03665	1168.21	462.3043	545.07955	1211.655	285.9919	490.88155	1212.638	260.2598	486.24275	926.1	333.3207	162.21345	1214.494	358.1221	64.08635	1032.614	-47.371	102.49355	1112.389	-118.883	109.68425	920.013	338.9986	328.54318	1186.941	312.1017	470.09415	997.842	-86.508	407.64269	1030.851	-152.763	356.96792	1159.576	646.9279	260.24227
443	29.46666667	900.738	333.7001	245.3951	1042.913	528.8758	257.89636	1187.168	734.7004	274.3539	1236.843	858.9374	247.40053	1196.912	657.4919	83.10585	1216.105	478.2621	-14.35225	1248.093	301.3924	47.58705	1247.201	261.4013	55.70845	1200.818	663.2489	435.42805	1177.656	464.5723	546.24655	1212.903	287.6809	490.35535	1209.548	255.6657	473.07535	931.772	342.1203	163.66535	1216.408	364.4602	69.25525	1033.892	-35.339	104.00965	1116.049	-103.695	109.38605	926.002	343.5509	329.19087	1193.791	335.4547	462.44445	1010.048	-61.242	407.36059	1030.539	-151.361	358.20369	1149.835	682.697	270.02141
444	29.53333333	909.323	344.6604	246.26982	1041.392	558.678	258.8416	1176.401	776.6893	271.5779	1222.795	907.9338	248.63948	1189.47	696.0328	88.56785	1247.288	525.689	-20.39425	1232.285	292.0091	75.34305	1244.471	262.5256	64.26715	1188.33	704.6453	437.62775	1213.839	526.4987	555.12825	1213.199	295.3304	489.03525	1216.922	258.0206	480.33845	940.812	354.3405	166.08055	1219.717	343.6717	70.41375	1034.178	-49.265	106.95005	1117.426	-114.758	114.04495	934.123	352.7134	328.53513	1191.963	312.0767	461.95835	1008.458	-79.806	409.17833	1030.352	-152.59	358.27395	1140.922	722.5985	268.45471
445	29.6	921.093	364.0108	246.95839	1040.543	591.0206	257.33278	1165.2	821.2433	266.98812	1208.053	953.23072	251.03294	1183.766	740.6426	93.48705	1276.381	604.8443	-31.17365	1378.027	529.3618	114.40205	1379.832	554.2846	161.29875	1181.833	746.759	433.51975	1251.759	590.0091	562.04065	1383.163	575.3248	340.18618	1384.76	602.9907	278.86165	951.786	372.6276	169.69885	1226.639	329.0021	68.75975	1044.582	-60.959	101.82725	1129.276	-123.602	108.72195	947.041	372.7205	325.94198	1196.891	308.3326	466.95895	1015.706	-79.832	414.69474	1030.605	-153.565	360.52377	1132.445	763.4635	264.66522
446	29.66666667	957.319	402.706	258.80109	1048.057	635.4993	264.23107	1150.866	871.4594	270.75405	1185.526	1010.017211	255.61098	1172.523	798.6522	102.42345	1297.657	703.4167	-39.95705	1439.265	641.4434	77.03995	1424.772	668.9118	135.65805	1176.236	802.2411	427.39425	1294.531	678.8384	565.63025	1420.824	604.8291	439.73985	1459.81	579.5467	398.17733	986.684	410.2435	185.40555	1234.888	317.1612	59.02075	1055.115	-68.383	91.23265	1141.054	-127.722	96.85695	984.619	411.4448	333.70137	1211.546	306.6253	484.85975	1035.425	-75.527	413.49005	1121.987	-133.931	403.41849	1123.337	813.2171	269.16623
447	29.73333333	953.079	405.5374	260.30235	1042.229	653.3303	262.74612	1144.561	910.6039	261.4674	1158.384	1056.85996	262.23219	1150.656	903.5225	119.66165	1266.803	845.782	-19.85345	1443.513	775.4249	-19.63085	1451.385	790.4502	35.89025	1169.903	841.2909	418.13565	1293.23	865.1992	562.91835	1436.505	743.2598	543.91925	1394.63	746.422	573.87395	982.641	415.7295	187.07225	1226.77	321.6791	65.04175	1050.338	-58.479	94.64345	1135.351	-116.837	90.21715	979.966	412.3376	335.1979	1209.812	315.3314	478.85485	1034.684	-62.239	420.98355	1120.271	-118.465	402.43907	1116.924	845.6803	262.24588
448	29.8	946.713	413.4124	260.31849	1031.52	696.4396	256.99312	1133.588	971.7846	253.19494	1146.486	1118.3814	255.76814	1149.407	839.5859	122.75765	1261.099	875.6489	-28.19515	1424.84	940.05627	-100.85335	1476.244	961.3028	-125.71015	1164.824	838.6664	411.53489	1359.629	879.0009	576.69165	1488.506	986.13393	486.50365	1498.335	1005.77303	403.57537	976.908	422.348	185.59965	1228.821	329.1571	70.30585	1057.515	-52.096	92.88415	1145.016	-110.087	93.58055	973.785	421.0057	336.77716	1211.568	321.6909	472.89465	1039.183	-55.816	418.26175	1126.729	-112.975	405.40204	1105.821	904.3758	253.95209
449	29.86666667	953.158	517.2684	263.52317	1029.694	783.8875	266.13289	1117.745	1045.99974	269.00012	1127.24	1175.1651	252.78134	1144.249	968.23758	93.15005	1271.523	1032.11674	-80.70065	1435.552	1121.8911	-38.55435	1453.219	1141.371	36.54595	1156.733	957.73442	420.05605	1342.49	1022.771109	587.21315	1478.319	1162.3024	422.61515	1482.813	1191.4897	375.88216	982.127	523.7458	188.14125	1194.801	350.0156	92.66745	1029.382	-33.533	110.35475	1119.106	-91.55	110.97495	982.539	524.3932	340.32525	1184.662	343.2524	442.53375	1017.62	-37.639	400.74423	1107.227	-95.208	390.1396	1093.696	981.14505	268.2374
450	29.93333333	956.863	573.6136	267.13288	1028.961	851.0708	265.69914	1112.656	1123.1877	264.61789	1106.066	1253.8778	261.00784	1132.255	1035.89523	99.39205	1246.995	1169.9965	-71.46605	1395.4	1290.4143	10.48675	1433.455	1321.2908	67.46195	1149.645	1015.132841	432.11375	1313.068	1165.1526	565.93765	1432.305	1285.8246	477.41935	1450.87	1320.425	434.32545	984.153	580.6362	190.43615	1181.063	371.0509	104.25265	1026.631	-16.129	114.57955	1118.897	-73.042	112.43995	988.58	578.8131	345.17268	1168.16	371.1172	425.11515	1006.906	-11.457	388.53485	1098.256	-68.806	376.83109	1089.701	1055.95892	264.82802
451	30	961.859	635.3578	269.26809	1027.008	915.6621	265.88627	1103.718	1189.9491	262.899	1092.729	1312.1076	259.85338	1118.387	1117.8122	103.52495	1207.898	1297.2524	-49.53035	1341.841	1456.3817	43.68785	1367.744	1487.7031	83.08435	1142.59	1092.87219	421.50075	1268.936	1285.6693	542.08245	1390.515	1448.4114	437.66695	1412.108	1490.9377	395.03806	989.41	642.2972	192.17485	1169.331	394.8528	110.54675	1030.673	3.23	114.65145	1125.892	-51.5	109.41915	993.955	639.0728	347.66226	1160.114	392.1911	416.31965	1006.624	7.873	385.47056	1099.666	-48.615	372.13538	1082.523	1122.2722	263.57974
452	30.06666667	976.595	703.6802	268.17401	1030.518	952.16477	266.38065	1101.093	1197.3193	263.77082	1078.799	1363.1158	255.10791	1098.049	1206.0838	101.34595	1171.611	1424.3205	-16.63435	1263.032	1595.9442	56.92975	1297.585	1647.6447	99.15785	1136.868	1178.5937	412.43191	1231.497	1400.6857	510.52175	1332.229	1572.535	425.75595	1354.214	1623.9115	387.28834	1002.965	708.5525	195.49465	1152.043	437.9677	112.41575	1037.876	37.9881	112.00405	1136.897	-13.548	101.86795	1010.114	707.6462	342.203	1147.57	431.7392	414.37956	1012.462	40.025	387.41862	1108.732	-14.019	370.28635	1080.589	1134.5099	264.47372
